<svg width="36" height="36" viewBox="0 0 36 36" fill="none" xmlns="http://www.w3.org/2000/svg">
<path fill-rule="evenodd" clip-rule="evenodd" d="M33 18C33 26.2843 26.2843 33 18 33C9.71573 33 3 26.2843 3 18C3 9.71573 9.71573 3 18 3C26.2843 3 33 9.71573 33 18ZM13.4544 13.4545C13.8938 13.0151 14.6061 13.0151 15.0454 13.4545L18 16.409L20.9544 13.4545C21.3938 13.0152 22.1061 13.0152 22.5454 13.4545C22.9848 13.8938 22.9848 14.6062 22.5454 15.0455L19.5909 18L22.5454 20.9544C22.9847 21.3938 22.9847 22.1061 22.5454 22.5454C22.1061 22.9848 21.3937 22.9848 20.9544 22.5454L18 19.591L15.0455 22.5455C14.6061 22.9848 13.8938 22.9848 13.4545 22.5455C13.0151 22.1061 13.0151 21.3938 13.4545 20.9545L16.409 18L13.4544 15.0455C13.0151 14.6061 13.0151 13.8938 13.4544 13.4545Z" fill="#FF6D60"/>
</svg>
