<svg width="214" height="216" viewBox="0 0 214 216" fill="none" xmlns="http://www.w3.org/2000/svg">
<g filter="url(#filter0_d_3_154)">
<path d="M94.3712 171.488L73.5495 201.519C72.6154 202.866 71.08 203.67 69.4405 203.67H9C6.23858 203.67 4 201.432 4 198.67V174.389C4 171.628 6.23858 169.389 9 169.389H22.8118C24.0103 169.389 25.1688 168.959 26.0765 168.176L37.9055 157.979C38.7992 157.208 39.3916 156.147 39.578 154.982L43.2597 131.971C43.3015 131.71 43.3225 131.446 43.3225 131.182V78.7543C43.3225 78.0183 43.16 77.2913 42.8465 76.6253L39.8188 70.1914C39.4711 69.4526 38.9479 68.8102 38.2947 68.3204L23.1196 56.9391C21.8397 55.9791 22.5186 53.9423 24.1185 53.9423C25.6102 53.9423 26.3491 52.1316 25.2833 51.088L21.1406 47.0315L6.9255 33.1126C5.22402 31.4466 4.93361 28.8117 6.23141 26.8151L9.07495 22.4404C9.99728 21.0215 11.5748 20.1654 13.2672 20.1654H68.6579C70.1704 20.1654 71.6017 20.8501 72.5508 22.0277L94.103 48.7684C96.1907 51.3587 100.179 51.2258 102.089 48.5022L120.474 22.294C121.41 20.9597 122.938 20.1654 124.567 20.1654H184.017C186.779 20.1654 189.017 22.4039 189.017 25.1654V28.6736C189.017 29.6984 188.702 30.6985 188.115 31.5384L150.093 85.9248C149.506 86.7647 149.191 87.7648 149.191 88.7897V126.687C149.191 127.891 149.625 129.055 150.415 129.964L187.793 173.02C188.582 173.93 189.017 175.094 189.017 176.298V202.199C189.017 204.961 186.779 207.199 184.017 207.199H132.497C130.944 207.199 129.479 206.477 128.532 205.245L102.445 171.29C100.382 168.605 96.3011 168.704 94.3712 171.488Z" fill="url(#paint0_linear_3_154)"/>
<mask id="mask0_3_154" style="mask-type:alpha" maskUnits="userSpaceOnUse" x="4" y="20" width="186" height="188">
<path d="M94.3712 171.488L73.5495 201.519C72.6154 202.866 71.08 203.67 69.4405 203.67H9C6.23858 203.67 4 201.432 4 198.67V174.389C4 171.628 6.23858 169.389 9 169.389H22.8118C24.0103 169.389 25.1688 168.959 26.0765 168.176L37.9055 157.979C38.7992 157.208 39.3916 156.147 39.578 154.982L43.2597 131.971C43.3015 131.71 43.3225 131.446 43.3225 131.182V78.7543C43.3225 78.0183 43.16 77.2913 42.8465 76.6253L39.8188 70.1914C39.4711 69.4526 38.9479 68.8102 38.2947 68.3204L23.1196 56.9391C21.8397 55.9791 22.5186 53.9423 24.1185 53.9423C25.6102 53.9423 26.3491 52.1316 25.2833 51.088L21.1406 47.0315L6.9255 33.1126C5.22402 31.4466 4.93361 28.8117 6.23141 26.8151L9.07495 22.4404C9.99728 21.0215 11.5748 20.1654 13.2672 20.1654H68.6579C70.1704 20.1654 71.6017 20.8501 72.5508 22.0277L94.103 48.7684C96.1907 51.3587 100.179 51.2258 102.089 48.5022L120.474 22.294C121.41 20.9597 122.938 20.1654 124.567 20.1654H184.017C186.779 20.1654 189.017 22.4039 189.017 25.1654V28.6736C189.017 29.6984 188.702 30.6985 188.115 31.5384L150.093 85.9248C149.506 86.7647 149.191 87.7648 149.191 88.7897V126.687C149.191 127.891 149.625 129.055 150.415 129.964L187.793 173.02C188.582 173.93 189.017 175.094 189.017 176.298V202.199C189.017 204.961 186.779 207.199 184.017 207.199H132.497C130.944 207.199 129.479 206.477 128.532 205.245L102.445 171.29C100.382 168.605 96.3011 168.704 94.3712 171.488Z" fill="url(#paint1_linear_3_154)"/>
</mask>
<g mask="url(#mask0_3_154)">
<g style="mix-blend-mode:darken" filter="url(#filter1_f_3_154)">
<ellipse cx="174.137" cy="186.628" rx="46.3803" ry="21.1736" transform="rotate(168.556 174.137 186.628)" fill="#F16765"/>
<ellipse cx="151.523" cy="156.23" rx="46.3803" ry="21.1736" transform="rotate(168.556 151.523 156.23)" fill="#55B5C0"/>
<ellipse cx="108.666" cy="178.279" rx="46.3803" ry="21.1736" transform="rotate(168.556 108.666 178.279)" fill="#D46A82"/>
<ellipse cx="59.2913" cy="203.705" rx="46.3803" ry="21.1736" transform="rotate(168.556 59.2913 203.705)" fill="#CD42F3"/>
<ellipse cx="53.0767" cy="167.929" rx="46.3803" ry="21.1736" transform="rotate(168.556 53.0767 167.929)" fill="#FF5A9C"/>
<ellipse cx="95.5469" cy="149.044" rx="46.3803" ry="21.1736" transform="rotate(168.556 95.5469 149.044)" fill="#C2BAFF"/>
<ellipse cx="77.2981" cy="124.963" rx="46.3803" ry="21.1736" transform="rotate(168.556 77.2981 124.963)" fill="#5199FF"/>
<ellipse cx="69.4964" cy="86.4226" rx="46.3803" ry="21.1736" transform="rotate(168.556 69.4964 86.4226)" fill="#74C9FC"/>
<ellipse cx="46.2029" cy="103.483" rx="46.3803" ry="21.1736" transform="rotate(168.556 46.2029 103.483)" fill="#74C9FC"/>
<ellipse cx="12.0586" cy="46.6141" rx="46.3803" ry="21.1736" transform="rotate(168.556 12.0586 46.6141)" fill="#A46C93"/>
<ellipse cx="2.44878" cy="80.4499" rx="46.3803" ry="21.1736" transform="rotate(168.556 2.44878 80.4499)" fill="#E9517F"/>
<ellipse cx="61.3177" cy="56.1878" rx="46.3803" ry="21.1736" transform="rotate(168.556 61.3177 56.1878)" fill="#702D8C"/>
<ellipse cx="134.767" cy="93.7835" rx="46.3803" ry="21.1736" transform="rotate(168.556 134.767 93.7835)" fill="#5199FF"/>
<ellipse cx="126.964" cy="55.2428" rx="46.3803" ry="21.1736" transform="rotate(168.556 126.964 55.2428)" fill="#FC6765"/>
<ellipse cx="103.363" cy="25.0442" rx="46.3803" ry="21.1736" transform="rotate(168.556 103.363 25.0442)" fill="#933BF1"/>
<ellipse cx="164.457" cy="21.9349" rx="46.3803" ry="21.1736" transform="rotate(168.556 164.457 21.9349)" fill="#55E7ED"/>
<ellipse cx="145.522" cy="126.583" rx="46.3803" ry="21.1736" transform="rotate(168.556 145.522 126.583)" fill="#C2BAFF"/>
</g>
</g>
<g filter="url(#filter2_d_3_154)">
<path d="M104.454 161.405L83.6323 191.436C82.6981 192.784 81.1628 193.587 79.5233 193.587H19.0828C16.3213 193.587 14.0828 191.349 14.0828 188.587V164.306C14.0828 161.545 16.3213 159.306 19.0828 159.306H32.8946C34.093 159.306 35.2516 158.876 36.1593 158.093L47.9883 147.896C48.882 147.126 49.4744 146.064 49.6608 144.899L53.3424 121.889C53.3842 121.628 53.4052 121.363 53.4052 121.099V68.6716C53.4052 67.9356 53.2427 67.2086 52.9293 66.5426L49.9016 60.1087C49.5539 59.3699 49.0306 58.7275 48.3775 58.2377L33.2024 46.8564C31.9225 45.8964 32.6014 43.8596 34.2013 43.8596C35.693 43.8596 36.4319 42.0489 35.3661 41.0053L31.2233 36.9488L17.0083 23.0299C15.3068 21.3639 15.0164 18.729 16.3142 16.7324L19.1577 12.3577C20.08 10.9388 21.6576 10.0827 23.3499 10.0827H78.7406C80.2532 10.0827 81.6844 10.7674 82.6336 11.945L104.186 38.6857C106.273 41.276 110.261 41.1431 112.172 38.4195L130.557 12.2113C131.493 10.877 133.02 10.0827 134.65 10.0827H194.1C196.861 10.0827 199.1 12.3212 199.1 15.0827V18.5909C199.1 19.6157 198.785 20.6158 198.198 21.4557L160.176 75.8421C159.588 76.682 159.273 77.6821 159.273 78.707V116.604C159.273 117.808 159.708 118.972 160.498 119.882L197.876 162.937C198.665 163.847 199.1 165.011 199.1 166.215V192.116C199.1 194.878 196.861 197.116 194.1 197.116H142.58C141.027 197.116 139.562 196.394 138.615 195.163L112.528 161.208C110.464 158.522 106.384 158.622 104.454 161.405Z" fill="url(#paint2_linear_3_154)"/>
<mask id="mask1_3_154" style="mask-type:alpha" maskUnits="userSpaceOnUse" x="14" y="10" width="186" height="188">
<path d="M104.454 161.405L83.6323 191.436C82.6981 192.784 81.1628 193.587 79.5233 193.587H19.0828C16.3213 193.587 14.0828 191.349 14.0828 188.587V164.306C14.0828 161.545 16.3213 159.306 19.0828 159.306H32.8946C34.093 159.306 35.2516 158.876 36.1593 158.093L47.9883 147.896C48.882 147.126 49.4744 146.064 49.6608 144.899L53.3424 121.889C53.3842 121.628 53.4052 121.363 53.4052 121.099V68.6716C53.4052 67.9356 53.2427 67.2086 52.9293 66.5426L49.9016 60.1087C49.5539 59.3699 49.0306 58.7275 48.3775 58.2377L33.2024 46.8564C31.9225 45.8964 32.6014 43.8596 34.2013 43.8596C35.693 43.8596 36.4319 42.0489 35.3661 41.0053L31.2233 36.9488L17.0083 23.0299C15.3068 21.3639 15.0164 18.729 16.3142 16.7324L19.1577 12.3577C20.08 10.9388 21.6576 10.0827 23.3499 10.0827H78.7406C80.2532 10.0827 81.6844 10.7674 82.6336 11.945L104.186 38.6857C106.273 41.276 110.261 41.1431 112.172 38.4195L130.557 12.2113C131.493 10.877 133.02 10.0827 134.65 10.0827H194.1C196.861 10.0827 199.1 12.3212 199.1 15.0827V18.5909C199.1 19.6157 198.785 20.6158 198.198 21.4557L160.176 75.8421C159.588 76.682 159.273 77.6821 159.273 78.707V116.604C159.273 117.808 159.708 118.972 160.498 119.882L197.876 162.937C198.665 163.847 199.1 165.011 199.1 166.215V192.116C199.1 194.878 196.861 197.116 194.1 197.116H142.58C141.027 197.116 139.562 196.394 138.615 195.163L112.528 161.208C110.464 158.522 106.384 158.622 104.454 161.405Z" fill="url(#paint3_linear_3_154)"/>
</mask>
<g mask="url(#mask1_3_154)">
<g style="mix-blend-mode:darken" filter="url(#filter3_f_3_154)">
<ellipse cx="210.823" cy="85.3864" rx="46.3803" ry="21.1736" transform="rotate(-64.5628 210.823 85.3864)" fill="#F16765"/>
<ellipse cx="172.936" cy="85.2302" rx="46.3803" ry="21.1736" transform="rotate(-64.5628 172.936 85.2302)" fill="#55B5C0"/>
<ellipse cx="164.851" cy="132.744" rx="46.3803" ry="21.1736" transform="rotate(-64.5628 164.851 132.744)" fill="#D46A82"/>
<ellipse cx="155.556" cy="187.498" rx="46.3803" ry="21.1736" transform="rotate(-64.5628 155.556 187.498)" fill="#CD42F3"/>
<ellipse cx="123.21" cy="170.997" rx="46.3803" ry="21.1736" transform="rotate(-64.5628 123.21 170.997)" fill="#FF5A9C"/>
<ellipse cx="133.594" cy="125.693" rx="46.3803" ry="21.1736" transform="rotate(-64.5628 133.594 125.693)" fill="#C2BAFF"/>
<ellipse cx="103.38" cy="125.836" rx="46.3803" ry="21.1736" transform="rotate(-64.5628 103.38 125.836)" fill="#5199FF"/>
<ellipse cx="67.8695" cy="108.947" rx="46.3803" ry="21.1736" transform="rotate(-64.5628 67.8695 108.947)" fill="#74C9FC"/>
<ellipse cx="67.5355" cy="137.817" rx="46.3803" ry="21.1736" transform="rotate(-64.5628 67.5355 137.817)" fill="#74C9FC"/>
<ellipse cx="1.55578" cy="130.998" rx="46.3803" ry="21.1736" transform="rotate(-64.5628 1.55578 130.998)" fill="#A46C93"/>
<ellipse cx="22.8527" cy="158.992" rx="46.3803" ry="21.1736" transform="rotate(-64.5628 22.8527 158.992)" fill="#E9517F"/>
<ellipse cx="38.7772" cy="97.3424" rx="46.3803" ry="21.1736" transform="rotate(-64.5628 38.7772 97.3424)" fill="#702D8C"/>
<ellipse cx="112.931" cy="61.1556" rx="46.3803" ry="21.1736" transform="rotate(-64.5628 112.931 61.1556)" fill="#5199FF"/>
<ellipse cx="77.42" cy="44.2658" rx="46.3803" ry="21.1736" transform="rotate(-64.5628 77.42 44.2658)" fill="#FC6765"/>
<ellipse cx="39.1" cy="45.0203" rx="46.3803" ry="21.1736" transform="rotate(-64.5628 39.1 45.0203)" fill="#933BF1"/>
<ellipse cx="73.2792" cy="-5.71354" rx="46.3803" ry="21.1736" transform="rotate(-64.5628 73.2792 -5.71354)" fill="#55E7ED"/>
<ellipse cx="145.62" cy="72.2381" rx="46.3803" ry="21.1736" transform="rotate(-64.5628 145.62 72.2381)" fill="#C2BAFF"/>
</g>
</g>
</g>
<g filter="url(#filter4_d_3_154)">
<path d="M114.537 151.322L93.7151 181.354C92.7809 182.701 91.2456 183.505 89.6061 183.505H29.1655C26.4041 183.505 24.1655 181.266 24.1655 178.505V154.224C24.1655 151.462 26.4041 149.224 29.1655 149.224H42.9773C44.1758 149.224 45.3343 148.793 46.242 148.011L58.0711 137.813C58.9647 137.043 59.5572 135.981 59.7436 134.816L63.4252 111.806C63.467 111.545 63.488 111.281 63.488 111.016V58.589C63.488 57.8529 63.3255 57.126 63.0121 56.46L59.9843 50.026C59.6367 49.2873 59.1134 48.6449 58.4602 48.155L43.2852 36.7737C42.0052 35.8137 42.6841 33.777 44.2841 33.777C45.7758 33.777 46.5147 31.9662 45.4488 30.9226L41.3061 26.8661L27.091 12.9472C25.3895 11.2812 25.0991 8.64636 26.3969 6.64975L29.2405 2.27506C30.1628 0.856094 31.7403 0 33.4327 0H88.8234C90.336 0 91.7672 0.6847 92.7164 1.86237L114.269 28.603C116.356 31.1933 120.344 31.0604 122.255 28.3368L140.64 2.12859C141.576 0.794341 143.103 0 144.733 0H204.183C206.944 0 209.183 2.23858 209.183 5V8.5082C209.183 9.53305 208.868 10.5331 208.281 11.3731L170.258 65.7594C169.671 66.5994 169.356 67.5995 169.356 68.6243V106.521C169.356 107.726 169.791 108.89 170.58 109.799L207.958 152.855C208.748 153.764 209.183 154.928 209.183 156.133V182.034C209.183 184.795 206.944 187.034 204.183 187.034H152.663C151.109 187.034 149.644 186.312 148.698 185.08L122.611 151.125C120.547 148.439 116.467 148.539 114.537 151.322Z" fill="url(#paint4_linear_3_154)"/>
<mask id="mask2_3_154" style="mask-type:alpha" maskUnits="userSpaceOnUse" x="24" y="0" width="186" height="188">
<path d="M114.537 151.322L93.7151 181.354C92.7809 182.701 91.2456 183.505 89.6061 183.505H29.1655C26.4041 183.505 24.1655 181.266 24.1655 178.505V154.224C24.1655 151.462 26.4041 149.224 29.1655 149.224H42.9773C44.1758 149.224 45.3343 148.793 46.242 148.011L58.0711 137.813C58.9647 137.043 59.5572 135.981 59.7436 134.816L63.4252 111.806C63.467 111.545 63.488 111.281 63.488 111.016V58.589C63.488 57.8529 63.3255 57.126 63.0121 56.46L59.9843 50.026C59.6367 49.2873 59.1134 48.6449 58.4602 48.155L43.2852 36.7737C42.0052 35.8137 42.6841 33.777 44.2841 33.777C45.7758 33.777 46.5147 31.9662 45.4488 30.9226L41.3061 26.8661L27.091 12.9472C25.3895 11.2812 25.0991 8.64636 26.3969 6.64975L29.2405 2.27506C30.1628 0.856094 31.7403 0 33.4327 0H88.8234C90.336 0 91.7672 0.6847 92.7164 1.86237L114.269 28.603C116.356 31.1933 120.344 31.0604 122.255 28.3368L140.64 2.12859C141.576 0.794341 143.103 0 144.733 0H204.183C206.944 0 209.183 2.23858 209.183 5V8.5082C209.183 9.53305 208.868 10.5331 208.281 11.3731L170.258 65.7594C169.671 66.5994 169.356 67.5995 169.356 68.6243V106.521C169.356 107.726 169.791 108.89 170.58 109.799L207.958 152.855C208.748 153.764 209.183 154.928 209.183 156.133V182.034C209.183 184.795 206.944 187.034 204.183 187.034H152.663C151.109 187.034 149.644 186.312 148.698 185.08L122.611 151.125C120.547 148.439 116.467 148.539 114.537 151.322Z" fill="url(#paint5_linear_3_154)"/>
</mask>
<g mask="url(#mask2_3_154)">
<g style="mix-blend-mode:darken" filter="url(#filter5_f_3_154)">
<ellipse cx="54.4138" cy="8.06615" rx="46.3803" ry="21.1736" fill="#F16765"/>
<ellipse cx="70.5459" cy="42.3473" rx="46.3803" ry="21.1736" fill="#55B5C0"/>
<ellipse cx="116.926" cy="29.2398" rx="46.3803" ry="21.1736" fill="#D46A82"/>
<ellipse cx="170.365" cy="14.1158" rx="46.3803" ry="21.1736" fill="#CD42F3"/>
<ellipse cx="169.356" cy="50.4134" rx="46.3803" ry="21.1736" fill="#FF5A9C"/>
<ellipse cx="123.984" cy="60.4961" rx="46.3803" ry="21.1736" fill="#C2BAFF"/>
<ellipse cx="137.092" cy="87.7193" rx="46.3803" ry="21.1736" fill="#5199FF"/>
<ellipse cx="137.092" cy="127.042" rx="46.3803" ry="21.1736" fill="#74C9FC"/>
<ellipse cx="163.307" cy="114.943" rx="46.3803" ry="21.1736" fill="#74C9FC"/>
<ellipse cx="185.488" cy="177.455" rx="46.3803" ry="21.1736" fill="#A46C93"/>
<ellipse cx="201.621" cy="146.199" rx="46.3803" ry="21.1736" fill="#E9517F"/>
<ellipse cx="139.109" cy="158.298" rx="46.3803" ry="21.1736" fill="#702D8C"/>
<ellipse cx="74.5793" cy="106.876" rx="46.3803" ry="21.1736" fill="#5199FF"/>
<ellipse cx="74.5793" cy="146.199" rx="46.3803" ry="21.1736" fill="#FC6765"/>
<ellipse cx="91.7197" cy="180.48" rx="46.3803" ry="21.1736" fill="#933BF1"/>
<ellipse cx="31.2238" cy="171.406" rx="46.3803" ry="21.1736" fill="#55E7ED"/>
<ellipse cx="60.5" cy="70" rx="36.5" ry="24" fill="#C2BAFF"/>
</g>
</g>
</g>
</g>
<defs>
<filter id="filter0_d_3_154" x="0" y="0" width="213.183" height="215.199" filterUnits="userSpaceOnUse" color-interpolation-filters="sRGB">
<feFlood flood-opacity="0" result="BackgroundImageFix"/>
<feColorMatrix in="SourceAlpha" type="matrix" values="0 0 0 0 0 0 0 0 0 0 0 0 0 0 0 0 0 0 127 0" result="hardAlpha"/>
<feOffset dy="4"/>
<feGaussianBlur stdDeviation="2"/>
<feComposite in2="hardAlpha" operator="out"/>
<feColorMatrix type="matrix" values="0 0 0 0 0 0 0 0 0 0 0 0 0 0 0 0 0 0 0.25 0"/>
<feBlend mode="normal" in2="BackgroundImageFix" result="effect1_dropShadow_3_154"/>
<feBlend mode="normal" in="SourceGraphic" in2="effect1_dropShadow_3_154" result="shape"/>
</filter>
<filter id="filter1_f_3_154" x="-63.2061" y="-20.7723" width="302.998" height="267.185" filterUnits="userSpaceOnUse" color-interpolation-filters="sRGB">
<feFlood flood-opacity="0" result="BackgroundImageFix"/>
<feBlend mode="normal" in="SourceGraphic" in2="BackgroundImageFix" result="shape"/>
<feGaussianBlur stdDeviation="10" result="effect1_foregroundBlur_3_154"/>
</filter>
<filter id="filter2_d_3_154" x="10.0828" y="10.0827" width="193.017" height="195.034" filterUnits="userSpaceOnUse" color-interpolation-filters="sRGB">
<feFlood flood-opacity="0" result="BackgroundImageFix"/>
<feColorMatrix in="SourceAlpha" type="matrix" values="0 0 0 0 0 0 0 0 0 0 0 0 0 0 0 0 0 0 127 0" result="hardAlpha"/>
<feOffset dy="4"/>
<feGaussianBlur stdDeviation="2"/>
<feComposite in2="hardAlpha" operator="out"/>
<feColorMatrix type="matrix" values="0 0 0 0 0 0 0 0 0 0 0 0 0 0 0 0 0 0 0.25 0"/>
<feBlend mode="normal" in2="BackgroundImageFix" result="effect1_dropShadow_3_154"/>
<feBlend mode="normal" in="SourceGraphic" in2="effect1_dropShadow_3_154" result="shape"/>
</filter>
<filter id="filter3_f_3_154" x="-46.0571" y="-68.5826" width="304.493" height="318.95" filterUnits="userSpaceOnUse" color-interpolation-filters="sRGB">
<feFlood flood-opacity="0" result="BackgroundImageFix"/>
<feBlend mode="normal" in="SourceGraphic" in2="BackgroundImageFix" result="shape"/>
<feGaussianBlur stdDeviation="10" result="effect1_foregroundBlur_3_154"/>
</filter>
<filter id="filter4_d_3_154" x="20.1655" y="0" width="193.017" height="195.034" filterUnits="userSpaceOnUse" color-interpolation-filters="sRGB">
<feFlood flood-opacity="0" result="BackgroundImageFix"/>
<feColorMatrix in="SourceAlpha" type="matrix" values="0 0 0 0 0 0 0 0 0 0 0 0 0 0 0 0 0 0 127 0" result="hardAlpha"/>
<feOffset dy="4"/>
<feGaussianBlur stdDeviation="2"/>
<feComposite in2="hardAlpha" operator="out"/>
<feColorMatrix type="matrix" values="0 0 0 0 0 0 0 0 0 0 0 0 0 0 0 0 0 0 0.25 0"/>
<feBlend mode="normal" in2="BackgroundImageFix" result="effect1_dropShadow_3_154"/>
<feBlend mode="normal" in="SourceGraphic" in2="effect1_dropShadow_3_154" result="shape"/>
</filter>
<filter id="filter5_f_3_154" x="-25.1565" y="-23.1075" width="283.158" height="234.761" filterUnits="userSpaceOnUse" color-interpolation-filters="sRGB">
<feFlood flood-opacity="0" result="BackgroundImageFix"/>
<feBlend mode="normal" in="SourceGraphic" in2="BackgroundImageFix" result="shape"/>
<feGaussianBlur stdDeviation="5" result="effect1_foregroundBlur_3_154"/>
</filter>
<linearGradient id="paint0_linear_3_154" x1="4" y1="29.2398" x2="189.521" y2="207.703" gradientUnits="userSpaceOnUse">
<stop stop-color="#FF6D60"/>
<stop offset="0.213542" stop-color="#58C0F5"/>
<stop offset="0.526042" stop-color="#7E057E"/>
<stop offset="1" stop-color="#4B64C9"/>
</linearGradient>
<linearGradient id="paint1_linear_3_154" x1="4" y1="29.2398" x2="189.521" y2="207.703" gradientUnits="userSpaceOnUse">
<stop stop-color="#FF6D60"/>
<stop offset="0.213542" stop-color="#58C0F5"/>
<stop offset="0.526042" stop-color="#7E057E"/>
<stop offset="1" stop-color="#4B64C9"/>
</linearGradient>
<linearGradient id="paint2_linear_3_154" x1="14.0828" y1="19.1571" x2="199.604" y2="197.621" gradientUnits="userSpaceOnUse">
<stop stop-color="#FF6D60"/>
<stop offset="0.213542" stop-color="#58C0F5"/>
<stop offset="0.526042" stop-color="#7E057E"/>
<stop offset="1" stop-color="#4B64C9"/>
</linearGradient>
<linearGradient id="paint3_linear_3_154" x1="14.0828" y1="19.1571" x2="199.604" y2="197.621" gradientUnits="userSpaceOnUse">
<stop stop-color="#FF6D60"/>
<stop offset="0.213542" stop-color="#58C0F5"/>
<stop offset="0.526042" stop-color="#7E057E"/>
<stop offset="1" stop-color="#4B64C9"/>
</linearGradient>
<linearGradient id="paint4_linear_3_154" x1="24.1655" y1="9.07442" x2="209.687" y2="187.538" gradientUnits="userSpaceOnUse">
<stop stop-color="#FF6D60"/>
<stop offset="0.213542" stop-color="#58C0F5"/>
<stop offset="0.526042" stop-color="#7E057E"/>
<stop offset="1" stop-color="#4B64C9"/>
</linearGradient>
<linearGradient id="paint5_linear_3_154" x1="24.1655" y1="9.07442" x2="209.687" y2="187.538" gradientUnits="userSpaceOnUse">
<stop stop-color="#FF6D60"/>
<stop offset="0.213542" stop-color="#58C0F5"/>
<stop offset="0.526042" stop-color="#7E057E"/>
<stop offset="1" stop-color="#4B64C9"/>
</linearGradient>
</defs>
</svg>
